<?xml version="1.0" standalone="no"?>
<!DOCTYPE svg PUBLIC "-//W3C//DTD SVG 20010904//EN"
 "http://www.w3.org/TR/2001/REC-SVG-20010904/DTD/svg10.dtd">
<svg version="1.0" xmlns="http://www.w3.org/2000/svg"
 width="582.000000pt" height="582.000000pt" viewBox="0 0 582.000000 582.000000"
 preserveAspectRatio="xMidYMid meet">
<metadata>
Created by potrace 1.14, written by Peter Selinger 2001-2017
</metadata>
<g transform="translate(0.000000,582.000000) scale(0.100000,-0.100000)"
fill="#000000" stroke="none">
<path d="M2011 5807 c-86 -11 -153 -34 -312 -110 -546 -262 -592 -288 -683
-389 -64 -71 -128 -195 -148 -288 -14 -62 -16 -208 -4 -259 14 -61 43 -134 98
-245 71 -143 102 -189 169 -254 45 -44 50 -52 40 -70 -39 -73 -195 -130 -401
-148 -47 -4 -92 -8 -100 -10 -8 -1 -30 -3 -47 -3 -28 -1 -33 -5 -33 -26 0 -29
7 -31 130 -41 47 -3 94 -8 105 -9 11 -2 40 -7 64 -10 69 -10 168 -43 217 -73
55 -33 99 -115 116 -213 l11 -65 -36 -57 -37 -57 -49 30 -49 31 41 70 c38 67
40 73 26 97 -8 15 -66 57 -137 100 -104 63 -131 75 -167 75 -46 0 -110 -37
-123 -72 -3 -9 -48 -85 -99 -169 -51 -84 -93 -154 -93 -157 0 -2 -17 -30 -38
-62 -88 -132 -76 -204 45 -275 90 -52 106 -62 144 -86 42 -26 81 -28 103 -7 8
8 29 40 46 70 l32 55 61 -34 c34 -20 63 -39 65 -45 2 -5 -13 -62 -33 -127 -30
-100 -59 -223 -79 -336 -27 -158 -28 -542 -1 -679 3 -13 9 -49 15 -79 11 -68
15 -83 30 -140 7 -25 13 -49 14 -55 2 -5 13 -44 25 -85 13 -41 23 -77 23 -80
0 -3 3 -9 8 -15 4 -5 13 -28 20 -50 7 -22 37 -88 66 -147 55 -110 61 -137 44
-198 -5 -19 -11 -46 -14 -60 -5 -31 -31 -90 -48 -110 -33 -40 -127 -92 -193
-106 -72 -16 -120 -23 -190 -30 -44 -4 -89 -8 -100 -10 -11 -1 -39 -3 -62 -3
-39 -1 -43 -3 -43 -26 0 -22 5 -25 38 -26 39 -2 47 -2 127 -13 28 -4 68 -9 90
-12 203 -26 309 -75 356 -166 21 -41 46 -130 54 -193 17 -125 26 -205 29 -260
2 -32 7 -41 24 -43 13 -2 22 2 23 10 5 60 16 147 34 276 28 194 84 292 192
332 30 11 58 20 63 20 5 0 29 -19 52 -43 127 -126 352 -286 540 -383 62 -32
115 -59 118 -59 3 -1 21 -8 40 -16 19 -9 64 -26 100 -38 36 -13 74 -27 85 -31
11 -5 31 -11 45 -14 14 -4 68 -17 120 -31 52 -13 118 -27 145 -31 28 -3 53 -8
57 -10 27 -17 455 -25 583 -12 78 8 190 26 235 38 19 5 49 12 67 15 91 15 349
112 488 183 28 14 65 32 83 41 17 8 32 19 32 23 0 4 5 8 11 8 7 0 43 21 82 47
38 27 78 52 88 58 11 5 19 13 19 17 0 5 5 8 11 8 7 0 17 7 24 17 10 13 14 0
23 -78 7 -52 15 -129 18 -172 7 -77 7 -78 33 -75 25 3 26 6 33 90 9 117 36
301 51 343 7 19 48 72 92 117 44 46 95 100 113 121 37 43 84 57 272 77 58 6
116 13 130 15 14 2 42 4 63 4 34 1 37 3 37 31 0 27 -3 30 -32 30 -53 0 -318
33 -318 39 0 3 10 22 22 41 60 95 141 251 183 350 38 90 85 220 79 220 -3 0 0
10 7 21 6 12 12 31 14 43 2 11 6 30 8 41 3 11 10 40 16 65 7 25 14 59 16 75 3
17 7 41 10 55 16 78 29 250 28 385 0 108 -11 272 -18 285 -2 3 -6 29 -10 59
-4 30 -9 63 -12 75 -3 12 -8 39 -13 61 -10 53 -47 186 -61 222 -6 15 -12 35
-14 43 -7 29 -77 194 -112 264 -44 87 -124 220 -135 224 -4 2 -8 9 -8 15 0 7
-11 25 -25 41 -14 16 -25 32 -25 36 0 3 -8 15 -18 26 -10 10 -25 29 -33 42
-20 28 -130 151 -179 201 -90 90 -173 160 -273 233 -42 31 -73 59 -67 63 30
18 204 69 280 80 14 3 36 7 50 10 14 3 48 7 75 10 28 3 61 7 75 10 14 2 50 7
80 10 30 4 68 8 83 11 16 2 45 6 65 8 250 24 283 32 263 64 -3 6 -39 13 -78
17 -40 3 -81 8 -92 10 -11 2 -48 6 -82 10 -34 3 -76 8 -93 11 -17 3 -51 7 -76
10 -25 2 -90 11 -145 20 -433 66 -568 144 -650 379 -9 28 -20 57 -22 65 -3 8
-7 22 -8 30 -2 8 -6 26 -9 40 -21 92 -33 166 -51 313 -3 23 -8 60 -12 82 -4
22 -6 43 -5 47 1 5 -2 38 -8 75 -5 38 -12 100 -16 138 -8 94 -11 107 -26 116
-20 12 -35 -8 -36 -47 -1 -21 -4 -53 -7 -73 -2 -20 -16 -128 -30 -241 -46
-369 -35 -331 -98 -325 -29 3 -61 7 -72 10 -11 2 -47 7 -80 11 -33 3 -107 12
-165 19 -58 7 -117 11 -132 9 -63 -7 -102 -58 -113 -149 -4 -28 -8 -60 -10
-73 -11 -66 -16 -153 -11 -170 7 -22 24 -31 71 -39 17 -3 37 -7 45 -8 8 -2 23
-4 34 -4 16 -1 18 -7 12 -53 -3 -29 -6 -57 -6 -61 0 -5 -42 -5 -92 -1 -138 11
-369 6 -488 -11 -68 -9 -158 -26 -187 -34 -17 -5 -34 -7 -37 -4 -3 4 12 25 34
49 110 120 179 294 174 444 -4 137 -14 167 -142 430 -32 66 -67 115 -122 171
-61 62 -155 129 -182 129 -10 0 -18 4 -18 8 0 5 -24 14 -52 21 -29 8 -57 16
-62 19 -8 5 -44 9 -121 15 -16 1 -59 -1 -94 -6z m145 -298 c8 -6 14 -9 14 -6
0 13 97 -44 130 -75 52 -50 60 -62 128 -203 70 -146 82 -204 62 -301 -25 -121
-100 -218 -211 -275 l-56 -28 -18 40 c-10 21 -15 43 -11 47 4 4 37 23 74 42
110 58 110 56 0 278 -87 174 -96 189 -135 210 -59 32 -108 30 -185 -6 -522
-247 -534 -256 -532 -371 0 -61 6 -77 74 -216 75 -152 106 -195 140 -195 17 0
96 32 152 61 14 8 21 2 38 -32 12 -22 20 -42 18 -43 -2 -2 -19 -11 -38 -20
-124 -62 -268 -59 -383 8 -72 42 -78 53 -90 170 l-11 106 -28 0 c-27 0 -28 -2
-28 -47 l-1 -48 -30 59 c-71 137 -85 244 -47 361 35 106 94 169 220 232 250
125 509 247 548 258 53 15 185 12 206 -6z m-471 -1429 c-8 -13 -45 -13 -65 0
-11 7 -3 10 28 10 26 0 41 -4 37 -10z m1505 -5 c19 -6 20 -13 14 -98 -7 -110
-7 -97 -5 -124 1 -16 7 -23 20 -23 27 0 33 13 37 79 2 31 6 76 8 101 3 25 5
51 5 58 1 8 8 11 19 8 9 -3 35 -7 57 -10 84 -9 97 -16 90 -45 -16 -61 -27
-131 -29 -175 -1 -30 3 -39 16 -42 10 -1 21 2 24 8 7 10 30 106 39 160 11 64
14 69 43 61 70 -17 127 -41 127 -54 0 -8 -19 -67 -42 -133 -24 -65 -43 -122
-43 -126 0 -10 79 -34 87 -26 4 3 8 12 9 19 2 11 47 141 61 177 7 16 10 26 12
38 5 26 18 32 49 21 18 -6 32 -12 32 -13 0 -1 9 -26 19 -56 l19 -54 -34 -68
c-30 -60 -32 -69 -19 -82 21 -20 40 -11 56 26 14 35 26 23 34 -36 3 -20 7 -53
10 -73 3 -20 7 -48 10 -62 2 -14 7 -53 10 -86 3 -33 7 -71 10 -85 3 -14 7 -52
9 -85 3 -33 8 -89 12 -125 4 -36 8 -76 8 -90 1 -14 5 -31 9 -38 11 -17 46 3
45 26 -1 16 8 111 17 172 2 14 6 48 9 75 9 72 26 205 32 236 2 15 6 44 9 65
10 77 16 92 61 153 2 2 33 -20 69 -49 l65 -52 -52 -61 c-28 -34 -60 -69 -70
-79 -25 -23 -28 -61 -4 -66 13 -3 42 20 97 79 l79 84 59 -59 60 -59 -26 -20
c-61 -48 -143 -134 -143 -150 0 -38 31 -26 115 42 47 39 90 71 94 71 4 0 23
-21 41 -47 19 -27 38 -51 43 -54 6 -4 7 -14 4 -23 -6 -14 -26 -30 -129 -98
-49 -32 -62 -63 -32 -75 9 -3 24 -1 33 5 9 7 48 30 86 53 39 23 72 46 75 50 9
13 25 -3 53 -55 15 -27 27 -49 27 -51 0 -1 -81 -42 -180 -91 -146 -72 -182
-94 -191 -116 -9 -23 -8 -32 4 -52 30 -45 53 -41 223 39 88 41 167 80 176 85
25 14 27 13 37 -12 5 -13 16 -40 25 -60 l16 -37 -51 -15 c-29 -9 -58 -21 -67
-28 -8 -7 -18 -12 -21 -11 -11 5 -69 -18 -81 -31 -8 -11 -7 -18 5 -29 14 -14
20 -14 63 -1 26 8 71 22 101 30 29 8 57 17 62 20 4 2 13 -15 19 -38 6 -24 15
-59 21 -78 14 -54 12 -57 -38 -64 -27 -4 -64 -12 -83 -18 -19 -6 -43 -12 -55
-13 -11 -1 -25 -3 -31 -4 -17 -2 -26 -32 -14 -46 6 -7 21 -12 33 -10 12 2 40
6 62 9 22 3 51 9 65 12 13 3 39 7 56 10 32 4 32 4 40 -54 11 -83 9 -109 -8
-109 -81 -2 -216 -17 -226 -26 -7 -6 -64 -12 -125 -13 -62 -2 -202 -5 -312 -8
-110 -4 -285 -8 -390 -11 -104 -3 -279 -8 -388 -11 -172 -5 -200 -4 -216 10
-9 8 -36 22 -60 31 -53 18 -114 6 -154 -31 -24 -22 -35 -24 -164 -28 -174 -5
-163 -4 -158 -18 5 -16 16 -163 15 -201 0 -31 -20 -31 190 -2 77 10 98 11 110
0 74 -62 166 -57 237 15 31 31 48 40 88 45 28 3 82 10 120 16 74 10 99 14 180
24 28 4 62 8 76 11 15 2 47 6 70 9 24 3 62 8 84 11 22 4 49 7 60 9 11 1 40 5
65 8 172 25 316 45 385 52 28 4 62 8 78 11 127 20 170 24 320 29 l137 3 0 -83
0 -83 -52 4 c-133 9 -190 7 -199 -7 -13 -21 15 -43 58 -46 21 -1 54 -5 73 -7
19 -3 52 -5 74 -5 l38 -1 -5 -52 c-11 -100 -18 -119 -38 -113 -25 8 -57 15
-104 21 -22 3 -54 9 -72 14 -20 5 -35 4 -42 -3 -25 -25 -5 -50 50 -61 13 -3
56 -12 94 -20 39 -9 73 -16 77 -16 4 0 2 -15 -3 -32 -6 -18 -12 -40 -14 -48
-10 -45 -26 -71 -37 -63 -7 4 -68 26 -136 49 -134 44 -131 44 -146 -18 -6 -24
-2 -30 26 -42 18 -8 28 -15 21 -15 -7 -1 -15 -25 -19 -60 -5 -50 -9 -58 -24
-54 -12 3 -22 -3 -29 -16 -10 -17 -7 -23 14 -37 27 -18 28 -23 9 -142 l-5 -33
-44 25 c-50 30 -73 33 -82 10 -6 -17 25 -49 83 -85 l32 -19 -13 -48 c-7 -26
-19 -62 -26 -81 l-15 -34 -69 62 c-71 62 -106 74 -113 38 -3 -17 26 -50 107
-121 l34 -28 -49 -28 c-76 -44 -98 -47 -126 -15 -40 47 -82 85 -96 85 -35 0
-16 -74 27 -107 26 -19 2 -32 -76 -39 -53 -5 -77 -3 -88 6 -13 11 -19 10 -35
-5 -11 -10 -41 -19 -74 -22 l-55 -5 -22 44 c-12 23 -28 51 -37 61 -34 38 -112
5 -107 -46 2 -13 22 -63 46 -112 23 -50 60 -127 82 -173 39 -82 40 -99 6 -106
-8 -2 -27 -8 -42 -14 -16 -7 -32 -12 -37 -12 -5 0 -23 43 -40 95 -39 117 -66
150 -88 107 -7 -12 1 -49 24 -121 19 -58 32 -106 31 -108 -5 -5 -151 -41 -155
-38 -2 1 -5 14 -7 29 -9 52 -13 72 -25 121 -17 76 -19 83 -38 90 -38 14 -43
-36 -16 -165 3 -14 8 -39 10 -56 6 -36 2 -37 -98 -49 l-58 -7 -1 33 c-1 46 -8
142 -12 170 -5 30 -32 48 -49 31 -12 -12 -14 -204 -2 -223 3 -5 2 -10 -3 -10
-29 -5 -140 -5 -151 -1 -11 4 -12 27 -7 108 8 119 2 147 -28 142 -26 -4 -34
-33 -41 -145 -2 -47 -9 -90 -14 -95 -6 -6 -30 -6 -67 1 -31 6 -61 8 -65 6 -17
-11 -21 17 -11 63 25 104 32 165 22 181 -5 7 -17 11 -28 7 -18 -6 -37 -68 -59
-191 -3 -16 -7 -32 -10 -34 -5 -5 -84 13 -141 33 l-21 7 20 45 c11 25 21 55
22 67 2 12 6 29 9 37 4 8 15 39 26 68 l20 54 -36 14 c-19 8 -39 14 -45 12 -8
-3 -77 -170 -78 -189 0 -4 -7 -22 -15 -42 l-15 -35 -65 25 c-36 15 -65 31 -65
37 0 6 20 53 45 105 44 91 51 131 21 131 -18 0 -26 -11 -81 -115 -27 -49 -49
-92 -51 -94 -2 -2 -16 6 -32 18 -17 12 -33 21 -37 21 -3 0 -21 10 -40 23 l-34
23 65 99 c57 86 63 100 50 113 -23 23 -37 11 -99 -81 -32 -48 -61 -88 -65 -91
-10 -6 -132 85 -132 98 0 6 34 48 75 93 72 81 82 104 49 117 -16 6 -28 -5
-114 -102 -30 -34 -57 -62 -61 -62 -4 0 -33 26 -64 57 l-58 56 49 45 c27 24
66 60 87 79 20 18 37 41 37 49 0 18 -24 28 -43 17 -17 -9 -122 -99 -148 -126
-17 -18 -19 -17 -58 35 -23 29 -46 58 -51 65 -6 7 -10 16 -10 20 0 4 41 35 91
67 99 65 102 68 93 90 -10 26 -35 19 -104 -27 -36 -24 -77 -51 -91 -61 l-27
-17 -31 51 c-17 28 -31 54 -31 59 0 5 83 51 185 101 184 90 185 91 185 124 0
42 -31 76 -65 70 -14 -2 -100 -40 -190 -84 -91 -44 -169 -80 -174 -80 -9 0
-56 118 -50 124 2 2 29 11 59 20 113 36 160 58 160 76 0 31 -25 30 -132 -4
-56 -19 -106 -31 -110 -27 -4 3 -15 38 -26 78 l-19 72 31 11 c17 6 66 18 110
25 96 18 117 31 97 64 -7 11 -22 11 -97 -2 -128 -23 -154 -26 -155 -19 0 4 -2
16 -3 27 -2 11 -6 45 -10 75 l-6 55 37 2 c138 5 188 13 200 29 23 31 -2 39
-125 39 l-117 0 0 80 0 80 82 -2 c44 -1 91 -2 104 -3 53 -5 69 0 69 19 0 21
-18 38 -40 38 -8 0 -46 4 -85 8 -38 4 -82 7 -97 6 -26 -1 -27 1 -22 36 9 68
13 98 13 115 1 14 6 15 34 7 17 -5 52 -12 77 -15 25 -3 60 -9 79 -14 23 -6 39
-6 48 2 30 25 8 51 -52 61 -16 3 -58 12 -92 20 -34 8 -64 12 -67 9 -11 -10 -6
28 11 88 9 33 20 60 24 60 8 0 160 -46 189 -58 8 -3 18 -6 23 -7 4 -2 8 -3 10
-5 1 -1 14 -4 28 -6 22 -4 27 1 37 33 6 20 9 40 6 44 -3 5 -26 15 -52 23 -58
17 -212 76 -212 81 0 14 54 125 61 125 5 0 54 -22 109 -48 100 -48 101 -48
116 -28 18 26 13 31 -101 91 -49 26 -92 49 -94 51 -5 5 30 70 64 121 l21 32
74 -50 c111 -74 124 -81 144 -66 18 13 14 42 -8 50 -18 7 -167 115 -168 123
-1 9 86 124 95 124 8 0 153 -116 162 -130 10 -16 42 -11 50 8 5 13 -14 37 -80
99 l-86 82 56 55 c30 31 59 56 64 56 5 0 15 -10 24 -22 8 -13 41 -51 74 -86
43 -45 65 -61 76 -56 25 9 21 38 -12 76 -91 103 -110 132 -99 145 23 28 109
85 121 80 7 -2 19 -17 27 -33 14 -27 61 -94 95 -136 18 -21 45 -13 45 14 0 10
-11 36 -25 56 -14 20 -25 42 -25 48 0 7 -4 14 -8 16 -10 4 -55 78 -51 82 2 2
27 17 55 34 l51 30 88 -177 c48 -97 95 -181 104 -188 40 -30 101 -1 101 49 0
9 -27 74 -61 145 -33 70 -71 151 -84 178 l-24 50 37 19 c47 24 92 31 92 14 0
-16 64 -186 74 -195 13 -13 35 -11 40 4 3 8 -2 40 -11 71 -9 32 -18 62 -19 67
-1 6 -9 29 -17 51 l-15 41 76 21 c42 12 80 18 84 14 4 -4 10 -21 13 -37 13
-80 37 -171 49 -183 18 -18 49 12 41 39 -4 11 -8 32 -10 47 -5 34 -14 89 -21
124 -6 31 1 34 92 44 34 3 64 2 67 -3 3 -4 8 -51 11 -103 8 -110 12 -130 30
-130 30 0 36 27 31 137 l-5 110 65 2 c36 1 75 -1 85 -4z m-20 -1782 c47 -40 8
-135 -54 -135 -63 0 -104 68 -71 118 30 46 83 53 125 17z m1526 -602 c62 -23
79 -33 77 -48 -3 -30 -43 -113 -55 -113 -26 0 -97 44 -102 64 -6 22 -8 126 -3
126 2 0 39 -13 83 -29z m-33 -212 c12 -7 23 -13 25 -14 2 -2 -7 -23 -19 -47
l-23 -43 -7 40 c-15 78 -13 83 24 64z m-711 -574 c42 -5 51 -11 78 -51 16 -25
30 -51 30 -59 0 -12 -78 -65 -97 -65 -5 0 -29 42 -54 93 -42 86 -44 93 -25 91
12 -2 42 -6 68 -9z m221 -35 c4 -4 -4 -15 -19 -25 -27 -17 -28 -17 -46 5 -10
12 -18 26 -18 32 0 10 70 0 83 -12z"/>
<path d="M2738 3515 c-2 -2 -21 -5 -43 -9 -104 -15 -208 -68 -284 -144 -72
-74 -83 -88 -114 -153 -40 -85 -54 -155 -51 -254 10 -392 437 -642 785 -461
60 32 65 36 127 97 61 59 77 79 106 137 104 205 70 443 -89 620 -52 59 -170
129 -250 148 -5 2 -21 6 -35 9 -27 6 -147 14 -152 10z m65 -89 c-3 -13 0 -27
6 -30 7 -5 11 2 11 18 0 17 6 26 15 26 11 0 14 -7 11 -25 -6 -32 8 -32 22 1
15 31 34 22 26 -12 -3 -13 -2 -24 4 -24 5 0 12 9 15 20 3 11 11 20 17 20 8 0
10 -9 6 -25 -5 -19 -2 -25 9 -25 9 0 14 4 11 9 -3 5 1 14 8 20 19 16 30 -3 17
-27 -15 -29 -1 -34 20 -9 33 39 20 9 -21 -49 -31 -44 -37 -60 -29 -71 18 -21
25 -16 63 42 36 54 56 74 56 58 0 -5 -5 -14 -12 -21 -19 -19 0 -27 21 -8 25
22 39 3 15 -21 -13 -13 -14 -18 -3 -22 7 -2 15 1 17 8 5 14 32 14 32 0 0 -7
-8 -18 -17 -25 -24 -17 -10 -29 16 -13 26 17 42 2 17 -17 -24 -17 -15 -29 11
-15 16 8 22 5 36 -19 18 -30 22 -51 10 -49 -19 3 -33 -2 -33 -12 0 -7 10 -9
25 -7 35 7 42 -9 11 -24 -36 -16 -33 -31 4 -23 25 5 29 4 24 -9 -3 -9 -15 -16
-25 -16 -10 0 -19 -4 -19 -10 0 -5 11 -10 24 -10 13 0 27 -7 30 -16 3 -8 2
-12 -4 -9 -14 9 -52 -4 -45 -15 3 -5 14 -7 25 -5 11 2 23 -1 26 -7 5 -7 -17
-8 -69 -5 -56 5 -78 3 -86 -7 -19 -22 10 -36 82 -38 68 -3 89 -14 40 -20 l-28
-4 28 -12 c33 -14 26 -35 -9 -26 -14 4 -24 2 -24 -5 0 -6 11 -13 25 -17 20 -5
23 -9 14 -20 -8 -10 -16 -11 -29 -4 -12 6 -21 6 -25 1 -3 -5 4 -12 15 -16 11
-3 20 -13 20 -21 0 -17 -5 -17 -30 -4 -11 6 -21 6 -25 1 -3 -5 4 -12 15 -16
11 -3 20 -12 20 -19 0 -21 -12 -26 -27 -10 -8 8 -19 11 -25 8 -7 -4 -1 -14 13
-25 28 -21 17 -39 -12 -20 -28 17 -37 6 -15 -18 22 -25 2 -40 -23 -17 -23 21
-36 8 -14 -16 22 -25 10 -33 -20 -13 -25 16 -25 16 -20 -4 3 -12 10 -21 16
-21 7 0 7 -4 -1 -12 -9 -9 -16 -7 -32 7 -16 14 -20 15 -20 4 0 -8 5 -20 11
-26 6 -6 7 -13 2 -16 -5 -3 -24 26 -43 64 -35 72 -37 74 -59 60 -11 -7 -8 -21
18 -76 35 -75 35 -75 22 -75 -5 0 -12 12 -16 27 -5 20 -8 24 -15 13 -5 -8 -4
-22 1 -32 6 -12 6 -18 -1 -18 -5 0 -13 0 -17 0 -5 0 -9 5 -9 10 -1 6 -2 15 -3
21 0 5 -5 8 -10 4 -5 -3 -8 -17 -5 -30 3 -18 0 -25 -11 -25 -8 0 -15 9 -15 19
0 11 -4 23 -10 26 -6 4 -10 -6 -10 -24 0 -23 -4 -29 -15 -25 -8 3 -14 9 -13
12 0 4 0 15 -1 25 -2 27 -21 10 -21 -19 0 -13 -4 -24 -10 -24 -10 0 -14 14
-11 38 1 6 -5 12 -14 12 -11 0 -15 -6 -10 -19 3 -11 0 -21 -9 -24 -11 -4 -16
3 -18 26 l-4 32 -12 -28 c-14 -34 -35 -26 -26 10 5 19 3 24 -7 21 -8 -3 -14
-11 -14 -19 0 -7 -8 -15 -17 -17 -15 -3 -17 2 -12 27 8 38 -3 41 -17 4 -7 -18
-13 -23 -20 -16 -8 8 -7 17 0 32 7 13 8 21 2 21 -6 0 -15 -9 -21 -21 -7 -11
-14 -18 -17 -15 -3 2 11 32 31 64 40 66 43 77 21 86 -10 3 -28 -14 -56 -55
-22 -33 -43 -58 -46 -55 -3 3 0 12 7 21 19 22 4 31 -19 11 -26 -23 -39 -2 -15
25 15 16 15 19 1 19 -8 0 -17 -5 -19 -12 -3 -7 -12 -9 -24 -4 -18 7 -18 8 4
25 29 21 16 36 -14 16 -30 -19 -39 3 -11 26 14 11 17 18 9 23 -7 4 -12 2 -12
-3 0 -22 -36 -10 -51 18 -16 28 -16 29 7 40 28 12 34 37 7 26 -29 -11 -35 -11
-40 1 -2 7 8 15 22 18 33 8 24 25 -10 18 -18 -3 -25 0 -25 12 0 10 9 16 25 16
14 0 25 5 25 10 0 6 -14 10 -31 10 -20 0 -29 4 -26 13 2 6 12 12 22 12 10 0
20 6 23 14 3 9 -1 11 -16 7 -11 -4 -23 -2 -27 4 -4 7 19 9 72 8 72 -3 78 -1
78 16 0 20 -11 23 -90 27 -43 1 -66 9 -60 20 4 5 13 5 24 -1 10 -5 21 -7 24
-3 10 10 -3 23 -22 23 -10 0 -18 7 -18 15 0 12 7 14 29 10 35 -8 39 12 4 21
-15 3 -23 11 -19 19 3 10 11 11 28 5 15 -6 27 -6 30 0 3 5 -6 12 -20 16 -26 6
-32 18 -15 29 6 4 18 1 26 -6 8 -6 18 -9 22 -5 4 4 -4 15 -17 25 -27 21 -13
38 17 22 27 -15 36 -1 11 17 -14 10 -17 18 -10 25 7 7 15 6 26 -3 8 -7 19 -10
23 -6 4 4 -2 14 -12 22 -14 10 -17 17 -9 25 7 7 15 6 26 -5 19 -20 27 -20 27
-1 0 7 -7 18 -16 23 -11 6 -13 12 -6 16 6 4 24 -1 39 -11 l28 -18 -17 27 c-21
32 -4 53 18 23 18 -24 29 -13 14 14 -6 13 -7 21 -1 21 5 0 22 -27 37 -60 15
-34 35 -65 45 -71 11 -5 18 -13 17 -17 -1 -8 3 -19 62 -152 23 -52 43 -109 44
-127 2 -17 15 -45 29 -63 15 -17 27 -38 27 -45 0 -21 17 -27 42 -14 13 6 24
13 26 14 2 2 -3 16 -12 33 -8 16 -17 41 -19 56 -2 16 -12 36 -23 45 -24 19
-37 39 -95 146 -23 44 -46 82 -49 85 -7 5 -22 43 -26 69 -2 8 -15 36 -29 63
-15 27 -24 54 -21 61 3 7 7 3 11 -10 10 -31 29 -29 21 1 -4 16 -1 26 8 29 10
4 16 -2 18 -16 2 -12 8 -21 13 -19 6 2 8 14 7 29 -3 17 0 24 10 21 7 -3 14
-14 16 -26 2 -12 8 -22 14 -22 6 0 8 11 5 25 -3 20 -1 25 12 23 9 -2 16 -10
16 -17 0 -8 6 -16 13 -19 9 -3 13 3 12 14 -3 29 -1 34 14 34 9 0 12 -8 9 -24z"/>
</g>
</svg>
